Coordinates
version=1
nRows=105
nColumns=11
inDegrees=no

Units are S.I. units (second, meters, Newtons, ...)
If the header above contains a line with 'inDegrees', this indicates whether rotational values are in degrees (yes) or radians (no).

endheader
time	pelvis_tilt	pelvis_tx	pelvis_ty	hip_flexion_r	knee_angle_r	ankle_angle_r	hip_flexion_l	knee_angle_l	ankle_angle_l	lumbar_extension
105.27	0.00964522	0.23801	1.01556	-0.011279	-0.229529	0.337576	0.438379	-0.347197	0.0595211	0
105.28	0.0102621	0.238139	1.01443	-0.0228869	-0.226283	0.345472	0.434682	-0.298596	0.0511727	0
105.29	0.0120705	0.238297	1.01348	-0.035976	-0.222652	0.354269	0.430779	-0.254985	0.0442398	0
105.3	0.012614	0.238266	1.01231	-0.0479128	-0.218251	0.359808	0.429135	-0.216409	0.0367787	0
105.31	0.0135299	0.238835	1.01127	-0.0609739	-0.213517	0.363558	0.426712	-0.182578	0.0319861	0
105.32	0.0152861	0.239654	1.01025	-0.075234	-0.208206	0.368846	0.423435	-0.153121	0.0278127	0
105.33	0.0179018	0.240654	1.00912	-0.0898877	-0.204309	0.375671	0.42032	-0.13051	0.0271119	0
105.34	0.0192835	0.24133	1.00777	-0.10256	-0.201726	0.383642	0.418716	-0.111784	0.0268999	0
105.35	0.0192779	0.242094	1.00642	-0.111706	-0.202969	0.392668	0.419336	-0.0997765	0.0247478	0
105.36	0.0185276	0.242992	1.00499	-0.119306	-0.205765	0.400088	0.42187	-0.095548	0.0248307	0
105.37	0.0167969	0.243676	1.00329	-0.126533	-0.20647	0.407759	0.425922	-0.0972543	0.0238341	0
105.38	0.0169121	0.244598	1.00173	-0.137579	-0.20418	0.415145	0.427344	-0.103051	0.0214934	0
105.39	0.01644	0.245426	1.00009	-0.147714	-0.202462	0.421565	0.430675	-0.11484	0.0215043	0
105.4	0.0148883	0.246395	0.998438	-0.154558	-0.205151	0.429417	0.434733	-0.130135	0.0193205	0
105.41	0.0147431	0.247727	0.997165	-0.163569	-0.206971	0.435512	0.436026	-0.146868	0.0128567	0
105.42	0.0144534	0.249107	0.995723	-0.172701	-0.208817	0.440481	0.437508	-0.164983	0.00537455	0
105.43	0.0120431	0.250589	0.993818	-0.17913	-0.212743	0.447643	0.442379	-0.185013	0.000608079	0
105.44	0.00898708	0.252276	0.992069	-0.185322	-0.216321	0.452378	0.448276	-0.204592	-0.00657576	0
105.45	0.00608284	0.254075	0.990517	-0.192421	-0.218248	0.45612	0.453784	-0.222425	-0.0210152	0
105.46	0.000822988	0.255597	0.988789	-0.195774	-0.221799	0.455143	0.461513	-0.238394	-0.0376126	0
105.47	-0.0041491	0.257206	0.987099	-0.200002	-0.223951	0.452834	0.467261	-0.253001	-0.0525241	0
105.48	-0.00775498	0.259142	0.985904	-0.206602	-0.224532	0.451543	0.471549	-0.270011	-0.0649667	0
105.49	-0.0105246	0.26106	0.984889	-0.212099	-0.229044	0.451936	0.478774	-0.294747	-0.0662397	0
105.5	-0.0152906	0.262419	0.983855	-0.211544	-0.239349	0.451837	0.491331	-0.325634	-0.0546138	0
105.51	-0.0196979	0.263909	0.983162	-0.210841	-0.25	0.450084	0.504214	-0.359262	-0.0314699	0
105.52	-0.021928	0.265801	0.982841	-0.212664	-0.261656	0.443858	0.513073	-0.39162	-0.00706754	0
105.53	-0.0239831	0.267749	0.982655	-0.2122	-0.278293	0.436668	0.519232	-0.419422	0.0166973	0
105.54	-0.0257925	0.269556	0.982765	-0.209062	-0.299252	0.425568	0.521511	-0.439675	0.0345684	0
105.55	-0.0255246	0.271337	0.983512	-0.205579	-0.324028	0.408029	0.517296	-0.452243	0.0483888	0
105.56	-0.0233263	0.27282	0.984933	-0.200575	-0.353797	0.390501	0.507591	-0.45816	0.0609769	0
105.57	-0.0219193	0.274228	0.986352	-0.192504	-0.386672	0.371488	0.497672	-0.462393	0.0730999	0
105.58	-0.0220784	0.275573	0.987737	-0.180836	-0.421906	0.347081	0.487733	-0.462692	0.0841481	0
105.59	-0.0201727	0.277007	0.9895	-0.168354	-0.460795	0.314551	0.47412	-0.460571	0.0944157	0
105.6	-0.0157227	0.278314	0.991489	-0.155845	-0.502989	0.278586	0.456409	-0.456591	0.105214	0
105.61	-0.0122504	0.279607	0.993359	-0.140471	-0.547279	0.239046	0.439897	-0.452193	0.115886	0
105.62	-0.0111424	0.280674	0.99489	-0.120265	-0.593867	0.199451	0.42764	-0.450079	0.128342	0
105.63	-0.0103855	0.28141	0.99635	-0.0970788	-0.642875	0.158115	0.415158	-0.446593	0.139479	0
105.64	-0.00925158	0.281935	0.99785	-0.0729734	-0.692645	0.117945	0.401596	-0.441958	0.146387	0
105.65	-0.00815511	0.282453	0.999241	-0.0479706	-0.743161	0.0735711	0.388183	-0.437612	0.154231	0
105.66	-0.00672122	0.282785	1.00072	-0.0210554	-0.795332	0.0239936	0.374077	-0.432282	0.162341	0
105.67	-0.00668498	0.2828	1.00216	0.00863597	-0.846703	-0.0261805	0.361349	-0.425509	0.170259	0
105.68	-0.00849537	0.282357	1.00331	0.0409427	-0.895573	-0.0719931	0.351437	-0.419222	0.176315	0
105.69	-0.0114715	0.28161	1.00415	0.073027	-0.939515	-0.0941436	0.345308	-0.416714	0.1824	0
105.7	-0.0147012	0.28076	1.00491	0.104536	-0.979358	-0.0912257	0.33792	-0.411682	0.188339	0
105.71	-0.0155132	0.280019	1.00605	0.13281	-1.01469	-0.0761667	0.325284	-0.402344	0.195508	0
105.72	-0.0151134	0.278932	1.00733	0.160339	-1.0464	-0.0596763	0.312317	-0.393446	0.19967	0
105.73	-0.0147506	0.277851	1.00864	0.187828	-1.075	-0.0448119	0.300614	-0.386456	0.202064	0
105.74	-0.0156984	0.276642	1.00959	0.216088	-1.09907	-0.0341944	0.290834	-0.380091	0.20427	0
105.75	-0.0153111	0.275433	1.0107	0.240848	-1.11616	-0.0271143	0.278697	-0.371845	0.20803	0
105.76	-0.01099	0.274455	1.01231	0.259934	-1.12746	-0.0176371	0.261035	-0.361554	0.21107	0
105.77	-0.00571503	0.273456	1.01386	0.277398	-1.13548	-0.00126306	0.242783	-0.352809	0.211092	0
105.78	2.22246e-05	0.272383	1.01546	0.292851	-1.13801	0.0140696	0.223739	-0.343684	0.211448	0
105.79	0.00428327	0.271137	1.01689	0.308897	-1.1367	0.0255767	0.206957	-0.335469	0.213073	0
105.8	0.00695359	0.269802	1.01818	0.326243	-1.13191	0.0410236	0.192345	-0.327484	0.218626	0
105.81	0.00772966	0.268607	1.01918	0.34494	-1.12269	0.0583222	0.180616	-0.321075	0.22429	0
105.82	0.0103956	0.267736	1.02018	0.359265	-1.10827	0.0720759	0.165709	-0.313604	0.227037	0
105.83	0.0129042	0.266487	1.02095	0.37243	-1.08961	0.0857064	0.150289	-0.303658	0.230903	0
105.84	0.0115948	0.264469	1.02127	0.389966	-1.06775	0.098175	0.140436	-0.294175	0.237978	0
105.85	0.0105619	0.262592	1.02138	0.406109	-1.04303	0.1089	0.131881	-0.288631	0.24584	0
105.86	0.011629	0.261243	1.02173	0.416984	-1.01226	0.119539	0.120836	-0.284283	0.249472	0
105.87	0.0113344	0.25984	1.02209	0.42727	-0.976026	0.126362	0.112044	-0.280562	0.248221	0
105.88	0.00991362	0.258406	1.02222	0.43723	-0.935913	0.129787	0.103125	-0.274566	0.246347	0
105.89	0.00859853	0.256893	1.02214	0.444903	-0.890671	0.130031	0.0945272	-0.269258	0.252813	0
105.9	0.00872509	0.255636	1.02187	0.449352	-0.842881	0.129393	0.0844305	-0.264408	0.265255	0
105.91	0.00740475	0.254452	1.02147	0.453279	-0.790806	0.125386	0.0755438	-0.259035	0.268514	0
105.92	0.0053087	0.253136	1.02086	0.458074	-0.738026	0.113855	0.0683407	-0.256165	0.270007	0
105.93	0.0046474	0.252177	1.02024	0.459337	-0.683293	0.0969275	0.0584984	-0.252185	0.276038	0
105.94	0.00544003	0.251359	1.0198	0.456964	-0.62585	0.0798576	0.0473351	-0.24741	0.285019	0
105.95	0.006244	0.250637	1.01934	0.452841	-0.565821	0.0689121	0.036535	-0.242704	0.293243	0
105.96	0.00742124	0.2502	1.0188	0.447322	-0.505061	0.0624505	0.024386	-0.237694	0.298643	0
105.97	0.00765891	0.249538	1.01803	0.443466	-0.446395	0.0522693	0.0139543	-0.233798	0.305737	0
105.98	0.00765938	0.248995	1.01705	0.43909	-0.388613	0.0410003	0.00367257	-0.230284	0.312825	0
105.99	0.00939184	0.248657	1.01611	0.432257	-0.332068	0.0324938	-0.00864114	-0.226616	0.321223	0
106	0.0118667	0.248716	1.0154	0.425068	-0.279752	0.0282349	-0.0221407	-0.222039	0.331773	0
106.01	0.0123583	0.248731	1.01459	0.420851	-0.231227	0.0233873	-0.0346294	-0.215246	0.340284	0
106.02	0.0124101	0.248792	1.01345	0.416654	-0.184264	0.0197548	-0.0478432	-0.207169	0.347591	0
106.03	0.0115764	0.24871	1.01199	0.415386	-0.14364	0.0137821	-0.0588439	-0.202102	0.353136	0
106.04	0.0106844	0.248749	1.01058	0.414166	-0.106949	0.00593217	-0.0688142	-0.198564	0.356183	0
106.05	0.0108526	0.249029	1.00948	0.411385	-0.0745957	-0.00511873	-0.0796544	-0.194927	0.364457	0
106.06	0.0113851	0.24925	1.00836	0.409264	-0.0493555	-0.0155581	-0.0915493	-0.19118	0.372364	0
106.07	0.0105404	0.249378	1.00668	0.410612	-0.0334087	-0.0239927	-0.10275	-0.186829	0.377042	0
106.08	0.0101748	0.249556	1.00501	0.414147	-0.0288731	-0.0287608	-0.114343	-0.182218	0.379847	0
106.09	0.0104303	0.249793	1.0036	0.420098	-0.0365037	-0.0328242	-0.125204	-0.179731	0.386548	0
106.1	0.00870787	0.250048	1.00207	0.430657	-0.0537131	-0.0369219	-0.132013	-0.181018	0.393931	0
106.11	0.00742511	0.250439	1.0006	0.440485	-0.0751978	-0.0372632	-0.139979	-0.18071	0.396474	0
106.12	0.0065825	0.251144	0.999118	0.448564	-0.098604	-0.0329017	-0.149618	-0.178801	0.397631	0
106.13	0.00599518	0.252	0.997536	0.455565	-0.123926	-0.0263173	-0.16093	-0.174979	0.402492	0
106.14	0.00698685	0.253019	0.996183	0.458646	-0.147387	-0.0191316	-0.172626	-0.173891	0.409967	0
106.15	0.00676208	0.254108	0.994916	0.460697	-0.167597	-0.016564	-0.180232	-0.177793	0.417725	0
106.16	0.00401066	0.255177	0.993334	0.463915	-0.184749	-0.0141129	-0.186103	-0.180426	0.423132	0
106.17	0.00139764	0.256318	0.991814	0.467114	-0.201824	-0.0128666	-0.19561	-0.176296	0.424629	0
106.18	0.000109194	0.25789	0.990656	0.468318	-0.217022	-0.0153066	-0.206608	-0.172187	0.423364	0
106.19	-0.000351647	0.259809	0.989538	0.468176	-0.22903	-0.0268203	-0.216814	-0.173092	0.422893	0
106.2	-0.00308685	0.261521	0.988114	0.46961	-0.237931	-0.0483505	-0.220274	-0.182001	0.42895	0
106.21	-0.00878225	0.262946	0.986391	0.473807	-0.247258	-0.0706105	-0.221184	-0.188406	0.43304	0
106.22	-0.0145834	0.264194	0.984908	0.480397	-0.262262	-0.0847939	-0.222649	-0.191918	0.434956	0
106.23	-0.0176928	0.266181	0.9841	0.486476	-0.2841	-0.0844819	-0.226727	-0.197738	0.431085	0
106.24	-0.0193377	0.268285	0.983711	0.495487	-0.316024	-0.0683294	-0.231391	-0.205648	0.423609	0
106.25	-0.0232918	0.270205	0.98302	0.50972	-0.354759	-0.0439066	-0.232614	-0.215074	0.416293	0
106.26	-0.0280805	0.271925	0.982338	0.523619	-0.39136	-0.0182444	-0.231336	-0.226934	0.410538	0
106.27	-0.031406	0.273555	0.982046	0.53239	-0.420456	0.00373959	-0.229268	-0.242724	0.401821	0
106.28	-0.0334673	0.275616	0.982095	0.535919	-0.443113	0.0241694	-0.225844	-0.264545	0.392952	0
106.29	-0.0331838	0.277841	0.982718	0.533735	-0.460835	0.0440972	-0.225199	-0.284958	0.379793	0
106.3	-0.0306019	0.279944	0.983898	0.526181	-0.472689	0.060662	-0.225799	-0.305534	0.358734	0
106.31	-0.0289075	0.281673	0.985076	0.516799	-0.479157	0.0721694	-0.220111	-0.334856	0.338713	0
